<?xml version="1.0" standalone="no"?>
<!DOCTYPE svg PUBLIC "-//W3C//DTD SVG 20010904//EN"
 "http://www.w3.org/TR/2001/REC-SVG-20010904/DTD/svg10.dtd">
<svg version="1.0" xmlns="http://www.w3.org/2000/svg"
 width="512.000000pt" height="512.000000pt" viewBox="0 0 512.000000 512.000000"
 preserveAspectRatio="xMidYMid meet">
<metadata>
Created by potrace 1.11, written by Peter Selinger 2001-2013
</metadata>
<g transform="translate(0.000000,512.000000) scale(0.100000,-0.100000)"
fill="#000000" stroke="none">
<path d="M448 4713 c-14 -9 -31 -27 -37 -40 -8 -17 -11 -644 -11 -2116 0
-1955 1 -2094 17 -2117 9 -14 24 -30 33 -37 12 -10 475 -12 2093 -13 2261 0
2118 -4 2145 55 16 36 17 4192 1 4228 -6 13 -23 31 -39 40 -26 16 -185 17
-2102 17 -1913 -1 -2075 -2 -2100 -17z"/>
</g>
</svg>
